<?xml version="1.0" standalone="no"?>
<!DOCTYPE svg PUBLIC "-//W3C//DTD SVG 20010904//EN"
 "http://www.w3.org/TR/2001/REC-SVG-20010904/DTD/svg10.dtd">
<svg version="1.0" xmlns="http://www.w3.org/2000/svg"
 width="436.000000pt" height="436.000000pt" viewBox="0 0 436.000000 436.000000"
 preserveAspectRatio="xMidYMid meet">

<g transform="translate(0.000000,436.000000) scale(0.100000,-0.100000)"
fill="#000000" stroke="none">
<path d="M2083 3963 c-55 -35 -83 -87 -83 -153 0 -64 30 -122 77 -151 32 -20
33 -23 33 -85 l0 -64 -277 0 c-153 0 -284 -4 -291 -8 -7 -5 -75 -141 -152
-302 -76 -162 -143 -296 -148 -298 -5 -1 -178 36 -383 84 -206 47 -386 87
-400 87 -18 0 -80 -43 -222 -156 -177 -141 -197 -160 -197 -187 0 -23 28 -65
130 -191 72 -89 130 -164 130 -168 0 -3 -58 -78 -130 -166 -104 -128 -130
-166 -130 -191 0 -29 15 -44 197 -188 140 -111 204 -156 222 -156 14 0 226 58
471 129 245 71 447 127 449 125 2 -1 6 -196 10 -431 l6 -428 32 -65 c42 -85
86 -125 343 -315 247 -183 296 -208 410 -207 117 0 161 22 408 204 258 191
303 232 345 318 l32 65 3 432 c2 238 4 433 5 433 2 0 207 -58 457 -130 249
-71 463 -130 476 -130 20 0 356 256 397 302 35 41 23 65 -113 233 -72 88 -130
163 -130 166 0 4 59 79 130 168 101 126 130 168 130 191 0 27 -20 46 -196 187
-145 116 -202 156 -222 156 -15 0 -193 -40 -397 -87 -203 -48 -376 -85 -383
-84 -7 2 -76 135 -152 297 -77 161 -142 296 -145 300 -4 3 -136 8 -293 11
l-287 5 -3 57 c-3 56 -3 57 36 83 112 74 110 244 -4 311 -58 34 -136 33 -191
-3z m135 -115 c21 -21 14 -66 -13 -84 -23 -15 -27 -15 -50 0 -17 11 -25 26
-25 44 0 35 16 52 50 52 14 0 31 -5 38 -12z m-378 -613 l145 -145 195 0 195 0
145 145 c142 142 146 146 184 143 l40 -3 183 -390 184 -389 -333 -333 -333
-333 -265 0 -265 0 -333 333 -333 333 181 384 c100 211 184 388 186 392 3 4
22 8 42 8 35 0 48 -10 182 -145z m565 65 l-80 -80 -145 0 -145 0 -80 80 -80
80 305 0 305 0 -80 -80z m-1560 -445 c187 -43 341 -79 343 -81 2 -1 -15 -38
-37 -83 -23 -44 -41 -92 -41 -106 0 -16 15 -42 41 -70 23 -25 38 -45 33 -45
-5 0 -157 -7 -339 -15 -181 -8 -352 -15 -380 -15 l-50 0 -108 134 c-59 74
-107 138 -107 143 1 15 275 224 290 220 8 -2 168 -39 355 -82z m3181 -25 c73
-58 133 -109 134 -113 0 -5 -48 -69 -107 -143 -106 -131 -109 -134 -148 -134
-22 0 -193 7 -380 15 -187 8 -344 15 -349 15 -5 0 10 20 33 45 26 28 41 54 41
70 0 14 -18 62 -41 106 -22 45 -39 82 -37 83 9 6 695 164 707 163 7 -1 73 -49
147 -107z m-2673 -518 c26 -27 27 -32 27 -138 l0 -110 -453 -130 -454 -131
-134 108 c-74 59 -134 112 -134 118 0 7 49 72 109 146 l108 135 77 1 c42 0
195 7 341 13 146 7 315 14 376 15 109 1 111 1 137 -27z m2162 13 c182 -8 351
-15 376 -15 l47 0 108 -135 c60 -74 109 -140 109 -146 0 -7 -60 -60 -134 -119
l-134 -107 -456 131 -456 131 -3 104 -3 104 33 34 c31 32 35 33 107 33 42 0
225 -7 406 -15z m-1335 -525 l314 0 173 172 173 172 0 -286 0 -287 -194 -142
c-107 -79 -209 -149 -228 -155 -45 -17 -431 -17 -476 0 -19 6 -120 76 -226
154 l-193 142 -6 128 c-4 70 -7 201 -7 292 l0 164 178 -177 178 -177 314 0z
m-420 -567 c126 -94 163 -103 420 -103 278 0 283 2 498 160 l164 121 -4 -164
c-3 -162 -3 -164 -33 -213 -24 -39 -71 -79 -220 -191 -262 -197 -298 -220
-360 -234 -92 -21 -135 1 -399 196 -126 94 -240 185 -254 202 -43 57 -51 98
-52 256 l0 148 78 -58 c42 -31 115 -85 162 -120z"/>
<path d="M1830 2892 c-46 -15 -50 -29 -50 -173 0 -137 0 -138 26 -158 15 -12
32 -21 39 -21 7 0 24 9 39 21 26 20 26 21 26 158 0 119 -2 140 -17 153 -23 19
-44 26 -63 20z"/>
<path d="M2493 2889 c-36 -13 -43 -41 -43 -178 0 -128 0 -130 26 -150 15 -12
32 -21 39 -21 7 0 24 9 39 21 26 20 26 21 26 158 0 119 -2 140 -17 153 -26 22
-45 26 -70 17z"/>
<path d="M421 2724 c-12 -15 -21 -32 -21 -39 0 -7 9 -24 21 -39 38 -48 119
-22 119 39 0 61 -81 87 -119 39z"/>
<path d="M3840 2730 c-41 -41 -10 -110 49 -110 30 0 71 38 71 65 0 7 -9 24
-21 39 -25 32 -70 35 -99 6z"/>
<path d="M462 2133 c-31 -28 -35 -56 -11 -86 25 -33 70 -36 99 -7 58 58 -26
146 -88 93z"/>
<path d="M3810 2130 c-41 -41 -10 -110 49 -110 37 0 74 43 65 74 -15 52 -78
72 -114 36z"/>
</g>
</svg>
