<svg width="65" height="96" viewBox="0 0 65 96" fill="none" xmlns="http://www.w3.org/2000/svg">
<path d="M19.191 65.0351L0.170166 46.0143V19.9858L19.191 0.964966H45.2195L64.2403 19.9858V46.0143L45.2195 65.0351H19.191Z" fill="#44A9C5"/>
<path d="M22.9693 55.7346L9.4707 42.2359V23.7641L22.9693 10.2654H41.4412L54.9398 23.7641V42.2359L41.4412 55.7346H22.9693Z" fill="#C4EEFA"/>
<path d="M6.95 84.94C7.09933 85.1267 7.286 85.374 7.51 85.682C7.74333 85.9807 7.98133 86.3167 8.224 86.69C8.46667 87.054 8.70467 87.4367 8.938 87.838C9.18067 88.2393 9.386 88.6267 9.554 89H8.07C7.88333 88.6453 7.678 88.286 7.454 87.922C7.23933 87.558 7.02 87.2127 6.796 86.886C6.572 86.55 6.348 86.2373 6.124 85.948C5.90933 85.6587 5.71333 85.4067 5.536 85.192C5.41467 85.2013 5.28867 85.206 5.158 85.206C5.03667 85.206 4.91067 85.206 4.78 85.206H3.562V89H2.204V79.438C2.58667 79.3447 3.01133 79.284 3.478 79.256C3.954 79.2187 4.388 79.2 4.78 79.2C6.14267 79.2 7.17867 79.4567 7.888 79.97C8.60667 80.4833 8.966 81.2487 8.966 82.266C8.966 82.91 8.79333 83.4607 8.448 83.918C8.112 84.3753 7.61267 84.716 6.95 84.94ZM4.892 80.39C4.31333 80.39 3.87 80.404 3.562 80.432V84.086H4.528C4.99467 84.086 5.41467 84.0627 5.788 84.016C6.16133 83.9693 6.474 83.8807 6.726 83.75C6.98733 83.6193 7.188 83.4373 7.328 83.204C7.468 82.9613 7.538 82.644 7.538 82.252C7.538 81.888 7.468 81.5847 7.328 81.342C7.188 81.0993 6.99667 80.908 6.754 80.768C6.52067 80.628 6.24067 80.53 5.914 80.474C5.59667 80.418 5.256 80.39 4.892 80.39ZM17.3507 85.36C17.3507 85.9387 17.2667 86.4613 17.0987 86.928C16.9307 87.3947 16.6927 87.796 16.3847 88.132C16.086 88.468 15.7267 88.7293 15.3067 88.916C14.8867 89.0933 14.4294 89.182 13.9347 89.182C13.44 89.182 12.9827 89.0933 12.5627 88.916C12.1427 88.7293 11.7787 88.468 11.4707 88.132C11.172 87.796 10.9387 87.3947 10.7707 86.928C10.6027 86.4613 10.5187 85.9387 10.5187 85.36C10.5187 84.7907 10.6027 84.2727 10.7707 83.806C10.9387 83.33 11.172 82.924 11.4707 82.588C11.7787 82.252 12.1427 81.9953 12.5627 81.818C12.9827 81.6313 13.44 81.538 13.9347 81.538C14.4294 81.538 14.8867 81.6313 15.3067 81.818C15.7267 81.9953 16.086 82.252 16.3847 82.588C16.6927 82.924 16.9307 83.33 17.0987 83.806C17.2667 84.2727 17.3507 84.7907 17.3507 85.36ZM15.9927 85.36C15.9927 84.5387 15.806 83.89 15.4327 83.414C15.0687 82.9287 14.5694 82.686 13.9347 82.686C13.3 82.686 12.796 82.9287 12.4227 83.414C12.0587 83.89 11.8767 84.5387 11.8767 85.36C11.8767 86.1813 12.0587 86.8347 12.4227 87.32C12.796 87.796 13.3 88.034 13.9347 88.034C14.5694 88.034 15.0687 87.796 15.4327 87.32C15.806 86.8347 15.9927 86.1813 15.9927 85.36ZM20.4845 82.042C20.6432 81.9393 20.8812 81.832 21.1985 81.72C21.5252 81.608 21.8985 81.552 22.3185 81.552C22.8412 81.552 23.3032 81.6453 23.7045 81.832C24.1152 82.0187 24.4605 82.28 24.7405 82.616C25.0205 82.952 25.2305 83.3533 25.3705 83.82C25.5198 84.2867 25.5945 84.8 25.5945 85.36C25.5945 85.948 25.5058 86.48 25.3285 86.956C25.1605 87.4227 24.9178 87.8193 24.6005 88.146C24.2832 88.4727 23.9005 88.7247 23.4525 88.902C23.0045 89.0793 22.5005 89.168 21.9405 89.168C21.3338 89.168 20.7972 89.126 20.3305 89.042C19.8638 88.958 19.4812 88.874 19.1825 88.79V78.36L20.4845 78.136V82.042ZM20.4845 87.866C20.6152 87.9033 20.7972 87.9407 21.0305 87.978C21.2732 88.006 21.5718 88.02 21.9265 88.02C22.6265 88.02 23.1865 87.7913 23.6065 87.334C24.0265 86.8673 24.2365 86.2093 24.2365 85.36C24.2365 84.9867 24.1992 84.6367 24.1245 84.31C24.0498 83.9833 23.9285 83.7033 23.7605 83.47C23.5925 83.2273 23.3732 83.0407 23.1025 82.91C22.8412 82.77 22.5238 82.7 22.1505 82.7C21.7958 82.7 21.4692 82.7607 21.1705 82.882C20.8718 83.0033 20.6432 83.1293 20.4845 83.26V87.866ZM33.8526 85.36C33.8526 85.9387 33.7686 86.4613 33.6006 86.928C33.4326 87.3947 33.1946 87.796 32.8866 88.132C32.588 88.468 32.2286 88.7293 31.8086 88.916C31.3886 89.0933 30.9313 89.182 30.4366 89.182C29.942 89.182 29.4846 89.0933 29.0646 88.916C28.6446 88.7293 28.2806 88.468 27.9726 88.132C27.674 87.796 27.4406 87.3947 27.2726 86.928C27.1046 86.4613 27.0206 85.9387 27.0206 85.36C27.0206 84.7907 27.1046 84.2727 27.2726 83.806C27.4406 83.33 27.674 82.924 27.9726 82.588C28.2806 82.252 28.6446 81.9953 29.0646 81.818C29.4846 81.6313 29.942 81.538 30.4366 81.538C30.9313 81.538 31.3886 81.6313 31.8086 81.818C32.2286 81.9953 32.588 82.252 32.8866 82.588C33.1946 82.924 33.4326 83.33 33.6006 83.806C33.7686 84.2727 33.8526 84.7907 33.8526 85.36ZM32.4946 85.36C32.4946 84.5387 32.308 83.89 31.9346 83.414C31.5706 82.9287 31.0713 82.686 30.4366 82.686C29.802 82.686 29.298 82.9287 28.9246 83.414C28.5606 83.89 28.3786 84.5387 28.3786 85.36C28.3786 86.1813 28.5606 86.8347 28.9246 87.32C29.298 87.796 29.802 88.034 30.4366 88.034C31.0713 88.034 31.5706 87.796 31.9346 87.32C32.308 86.8347 32.4946 86.1813 32.4946 85.36ZM36.9025 81.72H39.6605V82.812H36.9025V86.172C36.9025 86.536 36.9305 86.8393 36.9865 87.082C37.0425 87.3153 37.1265 87.502 37.2385 87.642C37.3505 87.7727 37.4905 87.866 37.6585 87.922C37.8265 87.978 38.0225 88.006 38.2465 88.006C38.6385 88.006 38.9511 87.964 39.1845 87.88C39.4271 87.7867 39.5951 87.7213 39.6885 87.684L39.9405 88.762C39.8098 88.8273 39.5811 88.9067 39.2545 89C38.9278 89.1027 38.5545 89.154 38.1345 89.154C37.6398 89.154 37.2291 89.0933 36.9025 88.972C36.5851 88.8413 36.3285 88.65 36.1325 88.398C35.9365 88.146 35.7965 87.838 35.7125 87.474C35.6378 87.1007 35.6005 86.6713 35.6005 86.186V79.69L36.9025 79.466V81.72ZM44.7395 81.3C45.2715 81.0947 45.7895 80.8333 46.2935 80.516C46.7975 80.1893 47.2595 79.7833 47.6795 79.298H48.6035V89H47.3015V81.104C47.1895 81.2067 47.0495 81.314 46.8815 81.426C46.7228 81.538 46.5455 81.6453 46.3495 81.748C46.1628 81.8507 45.9622 81.9487 45.7475 82.042C45.5422 82.1353 45.3415 82.2147 45.1455 82.28L44.7395 81.3Z" fill="#44A9C5"/>
</svg>
