<svg width="67" height="96" viewBox="0 0 67 96" fill="none" xmlns="http://www.w3.org/2000/svg">
<path d="M21.096 65.0351L2.0752 46.0143V19.9858L21.096 0.964966H47.1245L66.1453 19.9858V46.0143L47.1245 65.0351H21.096Z" fill="#99A9AD"/>
<path d="M24.8744 55.7346L11.3757 42.2359V23.7641L24.8744 10.2654H43.3462L56.8448 23.7641V42.2359L43.3462 55.7346H24.8744Z" fill="#A8C2CA"/>
<path d="M5.95 84.94C6.09933 85.1267 6.286 85.374 6.51 85.682C6.74333 85.9807 6.98133 86.3167 7.224 86.69C7.46667 87.054 7.70467 87.4367 7.938 87.838C8.18067 88.2393 8.386 88.6267 8.554 89H7.07C6.88333 88.6453 6.678 88.286 6.454 87.922C6.23933 87.558 6.02 87.2127 5.796 86.886C5.572 86.55 5.348 86.2373 5.124 85.948C4.90933 85.6587 4.71333 85.4067 4.536 85.192C4.41467 85.2013 4.28867 85.206 4.158 85.206C4.03667 85.206 3.91067 85.206 3.78 85.206H2.562V89H1.204V79.438C1.58667 79.3447 2.01133 79.284 2.478 79.256C2.954 79.2187 3.388 79.2 3.78 79.2C5.14267 79.2 6.17867 79.4567 6.888 79.97C7.60667 80.4833 7.966 81.2487 7.966 82.266C7.966 82.91 7.79333 83.4607 7.448 83.918C7.112 84.3753 6.61267 84.716 5.95 84.94ZM3.892 80.39C3.31333 80.39 2.87 80.404 2.562 80.432V84.086H3.528C3.99467 84.086 4.41467 84.0627 4.788 84.016C5.16133 83.9693 5.474 83.8807 5.726 83.75C5.98733 83.6193 6.188 83.4373 6.328 83.204C6.468 82.9613 6.538 82.644 6.538 82.252C6.538 81.888 6.468 81.5847 6.328 81.342C6.188 81.0993 5.99667 80.908 5.754 80.768C5.52067 80.628 5.24067 80.53 4.914 80.474C4.59667 80.418 4.256 80.39 3.892 80.39ZM16.3507 85.36C16.3507 85.9387 16.2667 86.4613 16.0987 86.928C15.9307 87.3947 15.6927 87.796 15.3847 88.132C15.086 88.468 14.7267 88.7293 14.3067 88.916C13.8867 89.0933 13.4294 89.182 12.9347 89.182C12.44 89.182 11.9827 89.0933 11.5627 88.916C11.1427 88.7293 10.7787 88.468 10.4707 88.132C10.172 87.796 9.93869 87.3947 9.77069 86.928C9.60269 86.4613 9.51869 85.9387 9.51869 85.36C9.51869 84.7907 9.60269 84.2727 9.77069 83.806C9.93869 83.33 10.172 82.924 10.4707 82.588C10.7787 82.252 11.1427 81.9953 11.5627 81.818C11.9827 81.6313 12.44 81.538 12.9347 81.538C13.4294 81.538 13.8867 81.6313 14.3067 81.818C14.7267 81.9953 15.086 82.252 15.3847 82.588C15.6927 82.924 15.9307 83.33 16.0987 83.806C16.2667 84.2727 16.3507 84.7907 16.3507 85.36ZM14.9927 85.36C14.9927 84.5387 14.806 83.89 14.4327 83.414C14.0687 82.9287 13.5694 82.686 12.9347 82.686C12.3 82.686 11.796 82.9287 11.4227 83.414C11.0587 83.89 10.8767 84.5387 10.8767 85.36C10.8767 86.1813 11.0587 86.8347 11.4227 87.32C11.796 87.796 12.3 88.034 12.9347 88.034C13.5694 88.034 14.0687 87.796 14.4327 87.32C14.806 86.8347 14.9927 86.1813 14.9927 85.36ZM19.4845 82.042C19.6432 81.9393 19.8812 81.832 20.1985 81.72C20.5252 81.608 20.8985 81.552 21.3185 81.552C21.8412 81.552 22.3032 81.6453 22.7045 81.832C23.1152 82.0187 23.4605 82.28 23.7405 82.616C24.0205 82.952 24.2305 83.3533 24.3705 83.82C24.5198 84.2867 24.5945 84.8 24.5945 85.36C24.5945 85.948 24.5058 86.48 24.3285 86.956C24.1605 87.4227 23.9178 87.8193 23.6005 88.146C23.2832 88.4727 22.9005 88.7247 22.4525 88.902C22.0045 89.0793 21.5005 89.168 20.9405 89.168C20.3338 89.168 19.7972 89.126 19.3305 89.042C18.8638 88.958 18.4812 88.874 18.1825 88.79V78.36L19.4845 78.136V82.042ZM19.4845 87.866C19.6152 87.9033 19.7972 87.9407 20.0305 87.978C20.2732 88.006 20.5718 88.02 20.9265 88.02C21.6265 88.02 22.1865 87.7913 22.6065 87.334C23.0265 86.8673 23.2365 86.2093 23.2365 85.36C23.2365 84.9867 23.1992 84.6367 23.1245 84.31C23.0498 83.9833 22.9285 83.7033 22.7605 83.47C22.5925 83.2273 22.3732 83.0407 22.1025 82.91C21.8412 82.77 21.5238 82.7 21.1505 82.7C20.7958 82.7 20.4692 82.7607 20.1705 82.882C19.8718 83.0033 19.6432 83.1293 19.4845 83.26V87.866ZM32.8526 85.36C32.8526 85.9387 32.7686 86.4613 32.6006 86.928C32.4326 87.3947 32.1946 87.796 31.8866 88.132C31.588 88.468 31.2286 88.7293 30.8086 88.916C30.3886 89.0933 29.9313 89.182 29.4366 89.182C28.942 89.182 28.4846 89.0933 28.0646 88.916C27.6446 88.7293 27.2806 88.468 26.9726 88.132C26.674 87.796 26.4406 87.3947 26.2726 86.928C26.1046 86.4613 26.0206 85.9387 26.0206 85.36C26.0206 84.7907 26.1046 84.2727 26.2726 83.806C26.4406 83.33 26.674 82.924 26.9726 82.588C27.2806 82.252 27.6446 81.9953 28.0646 81.818C28.4846 81.6313 28.942 81.538 29.4366 81.538C29.9313 81.538 30.3886 81.6313 30.8086 81.818C31.2286 81.9953 31.588 82.252 31.8866 82.588C32.1946 82.924 32.4326 83.33 32.6006 83.806C32.7686 84.2727 32.8526 84.7907 32.8526 85.36ZM31.4946 85.36C31.4946 84.5387 31.308 83.89 30.9346 83.414C30.5706 82.9287 30.0713 82.686 29.4366 82.686C28.802 82.686 28.298 82.9287 27.9246 83.414C27.5606 83.89 27.3786 84.5387 27.3786 85.36C27.3786 86.1813 27.5606 86.8347 27.9246 87.32C28.298 87.796 28.802 88.034 29.4366 88.034C30.0713 88.034 30.5706 87.796 30.9346 87.32C31.308 86.8347 31.4946 86.1813 31.4946 85.36ZM35.9025 81.72H38.6605V82.812H35.9025V86.172C35.9025 86.536 35.9305 86.8393 35.9865 87.082C36.0425 87.3153 36.1265 87.502 36.2385 87.642C36.3505 87.7727 36.4905 87.866 36.6585 87.922C36.8265 87.978 37.0225 88.006 37.2465 88.006C37.6385 88.006 37.9511 87.964 38.1845 87.88C38.4271 87.7867 38.5951 87.7213 38.6885 87.684L38.9405 88.762C38.8098 88.8273 38.5811 88.9067 38.2545 89C37.9278 89.1027 37.5545 89.154 37.1345 89.154C36.6398 89.154 36.2291 89.0933 35.9025 88.972C35.5851 88.8413 35.3285 88.65 35.1325 88.398C34.9365 88.146 34.7965 87.838 34.7125 87.474C34.6378 87.1007 34.6005 86.6713 34.6005 86.186V79.69L35.9025 79.466V81.72ZM48.9755 81.776C48.9755 82.112 48.9055 82.4387 48.7655 82.756C48.6348 83.064 48.4575 83.372 48.2335 83.68C48.0095 83.9787 47.7575 84.2773 47.4775 84.576C47.1975 84.8653 46.9175 85.15 46.6375 85.43C46.4788 85.5887 46.2922 85.7753 46.0775 85.99C45.8722 86.2047 45.6762 86.4287 45.4895 86.662C45.3028 86.8953 45.1442 87.1193 45.0135 87.334C44.8922 87.5487 44.8315 87.7353 44.8315 87.894H49.2975V89H43.4175C43.4082 88.944 43.4035 88.888 43.4035 88.832C43.4035 88.776 43.4035 88.7247 43.4035 88.678C43.4035 88.2393 43.4735 87.8333 43.6135 87.46C43.7628 87.0773 43.9542 86.718 44.1875 86.382C44.4208 86.046 44.6822 85.7287 44.9715 85.43C45.2608 85.1313 45.5455 84.842 45.8255 84.562C46.0588 84.338 46.2782 84.1187 46.4835 83.904C46.6982 83.68 46.8848 83.4607 47.0435 83.246C47.2115 83.022 47.3422 82.7933 47.4355 82.56C47.5382 82.3267 47.5895 82.0793 47.5895 81.818C47.5895 81.538 47.5428 81.3 47.4495 81.104C47.3655 80.908 47.2488 80.7447 47.0995 80.614C46.9502 80.4833 46.7728 80.39 46.5675 80.334C46.3715 80.2687 46.1615 80.236 45.9375 80.236C45.6668 80.236 45.4195 80.2733 45.1955 80.348C44.9715 80.4227 44.7708 80.5113 44.5935 80.614C44.4162 80.7073 44.2668 80.81 44.1455 80.922C44.0242 81.0247 43.9308 81.104 43.8655 81.16L43.2215 80.236C43.3055 80.1427 43.4315 80.0307 43.5995 79.9C43.7675 79.76 43.9682 79.6293 44.2015 79.508C44.4348 79.3867 44.6962 79.284 44.9855 79.2C45.2748 79.116 45.5875 79.074 45.9235 79.074C46.9408 79.074 47.7015 79.312 48.2055 79.788C48.7188 80.2547 48.9755 80.9173 48.9755 81.776Z" fill="#44A9C5"/>
</svg>
